<?xml version="1.0" encoding="utf-8"?>
<!-- Generator: Adobe Illustrator 27.5.0, SVG Export Plug-In . SVG Version: 6.00 Build 0)  -->
<svg version="1.1" xmlns="http://www.w3.org/2000/svg" xmlns:xlink="http://www.w3.org/1999/xlink" x="0px" y="0px"
	 viewBox="0 0 750 500" style="enable-background:new 0 0 750 500;" xml:space="preserve">
<g id="BACKGROUND">
	<rect x="-0.167" y="0.321" style="fill:#F3E8D3;" width="750" height="499.714"/>
</g>
<g id="OBJECTS">
	<g>
		<g>
			<rect x="-0.167" y="440.568" style="fill:#DBC8A7;" width="750" height="7.514"/>
			<g>
				<g>
					<g>
						<g>
							<g>
								<g>
									<g>
										<rect x="305.743" y="131.14" style="fill:#DBC8A7;" width="223.377" height="7.023"/>
									</g>
									<g>
										<rect x="305.743" y="403.711" style="fill:#DBC8A7;" width="223.377" height="7.023"/>
									</g>
								</g>
								<g>
									<g>
										<g>
											<rect x="305.743" y="131.14" style="fill:#DBC8A7;" width="7.023" height="307.624"/>
										</g>
										<circle style="fill:#DBC8A7;" cx="309.254" cy="438.763" r="9.319"/>
									</g>
									<g>
										<g>
											<rect x="522.096" y="131.14" style="fill:#DBC8A7;" width="7.023" height="307.624"/>
										</g>
										<circle style="fill:#DBC8A7;" cx="525.608" cy="438.763" r="9.319"/>
									</g>
								</g>
							</g>
						</g>
					</g>
					<g>
						<g>
							<path style="fill:none;stroke:#332A3C;stroke-linecap:round;stroke-linejoin:round;stroke-miterlimit:10;" d="
								M433.48,367.944c0,0,9.353-15.034,31.059-17.151s43.873,16.399,46.235,37.059c2.529,22.118-18.164,13.294-18.164,13.294"/>
							<g>
								<path style="fill:#C74C4B;" d="M489.127,403.711h-52c-3.119,0-5.647-2.528-5.647-5.647v-26.742
									c0-3.119,2.528-5.647,5.647-5.647h52c3.119,0,5.647,2.528,5.647,5.647v26.742
									C494.775,401.182,492.246,403.711,489.127,403.711z"/>
								<g>
									<g>
										<path style="fill:#C74C4B;" d="M432.64,367.902l0.248-0.304C432.802,367.697,432.72,367.798,432.64,367.902z"/>
										<path style="fill:#C74C4B;" d="M432.608,367.942c0,0,0.001,0.002,0.001,0.002c0.01-0.014,0.021-0.028,0.031-0.042
											L432.608,367.942z"/>
										<g>
											<path style="fill:#D86564;" d="M448.304,383.263c5.118,1.235,29.824,1.235,32.647,0
												c2.823-1.235,12.451-13.602,11.608-16.419v0c-0.952-0.731-2.139-1.169-3.432-1.169h-52c-1.691,0-3.204,0.747-4.239,1.924
												l-0.248,0.304c-0.01,0.014-0.021,0.028-0.031,0.042C432.639,367.984,443.194,382.029,448.304,383.263z"/>
										</g>
									</g>
								</g>
								<path style="fill:#433A4D;" d="M464.195,389.575h-2.136c-1.424,0-2.579-1.155-2.579-2.579v-4.606
									c0-1.424,1.155-2.579,2.579-2.579h2.136c1.424,0,2.579,1.155,2.579,2.579v4.606
									C466.774,388.42,465.619,389.575,464.195,389.575z"/>
							</g>
						</g>
						<g>
							<g>
								<g>
									
										<polygon style="fill:none;stroke:#C4A777;stroke-width:0.75;stroke-linecap:round;stroke-linejoin:round;stroke-miterlimit:10;" points="
										362.589,141.569 325.323,160.93 396.947,160.93 									"/>
									
										<path style="fill:none;stroke:#C4A777;stroke-width:0.75;stroke-linecap:round;stroke-linejoin:round;stroke-miterlimit:10;" d="
										M361.317,131.674c0,0,1.767-1.392,4.712,0c2.945,1.392,2.71,7.313-3.416,7.313v2.583"/>
								</g>
								<rect x="336.654" y="157.433" style="fill:#F6B95C;" width="44.942" height="105.507"/>
							</g>
							<g>
								<g>
									
										<polygon style="fill:none;stroke:#C4A777;stroke-width:0.75;stroke-linecap:round;stroke-linejoin:round;stroke-miterlimit:10;" points="
										399.257,140.939 361.991,160.3 433.616,160.3 									"/>
									
										<path style="fill:none;stroke:#C4A777;stroke-width:0.75;stroke-linecap:round;stroke-linejoin:round;stroke-miterlimit:10;" d="
										M397.985,131.044c0,0,1.767-1.392,4.712,0c2.945,1.392,2.71,7.313-3.416,7.313v2.583"/>
								</g>
								<g>
									<g>
										<path style="fill:#544B5F;" d="M371.657,169.575l9.345,50.991c0,0-21.026,5.04-23.829,63.39l74.086,2.12
											c0,0,3.521-47.236-17.55-65.511l8.878-50.991l-28.501-10.71L371.657,169.575z"/>
										<g>
											<path style="fill:#544B5F;" d="M376.024,156.25c0,0-10.827,6.529-9.966,8.668s13.159,19.31,15.97,19.31
												s17.25-25.429,17.25-25.429L376.024,156.25z"/>
											<g>
												<path style="fill:#544B5F;" d="M422.459,156.25c0,0,4.416,7.233,3.555,9.372c-0.861,2.139-16.227,17.179-19.039,17.179
													s-11.018-24.366-11.018-24.366L422.459,156.25z"/>
											</g>
										</g>
									</g>
								</g>
							</g>
							<g>
								<g>
									
										<polygon style="fill:none;stroke:#C4A777;stroke-width:0.75;stroke-linecap:round;stroke-linejoin:round;stroke-miterlimit:10;" points="
										424.941,141.163 387.675,160.524 459.3,160.524 									"/>
									
										<path style="fill:none;stroke:#C4A777;stroke-width:0.75;stroke-linecap:round;stroke-linejoin:round;stroke-miterlimit:10;" d="
										M423.669,131.267c0,0,1.767-1.392,4.712,0c2.945,1.392,2.71,7.313-3.416,7.313v2.583"/>
								</g>
								<g>
									<rect x="401.016" y="157.027" style="fill:#F6B95C;" width="44.942" height="87.597"/>
									<g>
										<rect x="407.064" y="160.392" style="fill:#DB9F4E;" width="3.966" height="78.782"/>
										<rect x="437.026" y="159.64" style="fill:#DB9F4E;" width="3.966" height="78.782"/>
										<rect x="421.504" y="160.503" style="fill:#DB9F4E;" width="3.966" height="49.738"/>
									</g>
								</g>
							</g>
							<g>
								<g>
									
										<polygon style="fill:none;stroke:#C4A777;stroke-width:0.75;stroke-linecap:round;stroke-linejoin:round;stroke-miterlimit:10;" points="
										343.204,141.569 305.939,160.93 377.563,160.93 									"/>
									
										<path style="fill:none;stroke:#C4A777;stroke-width:0.75;stroke-linecap:round;stroke-linejoin:round;stroke-miterlimit:10;" d="
										M341.933,131.674c0,0,1.767-1.392,4.712,0c2.945,1.392,2.71,7.313-3.416,7.313v2.583"/>
								</g>
								<g>
									<g>
										<path style="fill:#C74C4B;" d="M317.252,170.538l8.958,43.975c0,0-14.092,80.066-16.895,153.429H376.7
											c0,0-8.056-119.405-17.868-154.019l9.349-43.384H317.252z"/>
										<g>
											<rect x="320.791" y="158.726" style="fill:#C74C4B;" width="3.654" height="13.458"/>
											<rect x="359.772" y="158.726" style="fill:#C74C4B;" width="3.654" height="13.458"/>
										</g>
									</g>
									<path style="fill:#AE4040;" d="M351.647,224.777c0,0,6.232,74.272,4.706,139.635L375,365.674
										c0,0-7.831-116.611-17.827-149.082L351.647,224.777z"/>
								</g>
							</g>
							<g>
								<g>
									
										<polygon style="fill:none;stroke:#C4A777;stroke-width:0.75;stroke-linecap:round;stroke-linejoin:round;stroke-miterlimit:10;" points="
										477.313,141.179 440.047,160.54 511.671,160.54 									"/>
									
										<path style="fill:none;stroke:#C4A777;stroke-width:0.75;stroke-linecap:round;stroke-linejoin:round;stroke-miterlimit:10;" d="
										M476.041,131.283c0,0,1.767-1.392,4.712,0c2.945,1.392,2.71,7.313-3.416,7.313v2.583"/>
								</g>
								<g>
									<path style="fill:#EC8C8E;" d="M511.292,190.575c2.811,0,9.892-10.983,10.754-13.122
										c0.861-2.139-21.532-20.963-21.532-20.963l-23.217,13.637L454.08,156.49c0,0-22.393,18.824-21.532,20.963
										c0.861,2.139,7.943,13.122,10.754,13.122c1.091,0,6.46-3.077,12.619-6.84l6.855,37.404c0,0-21.026,47.666-23.829,106.016
										c0,0,6.651,5.61,20.23,3.845c13.579-1.765,12.576,0.898,23.647,1.458c13.059,0.66,15.765-3.928,23.176-2.87
										c7.412,1.059,9.574-2.433,9.574-2.433s-10.279-78.485-20.091-106.016l6.196-35.586
										C506.506,188.438,510.384,190.575,511.292,190.575z"/>
									<g>
										<path style="fill:#DC7379;" d="M454.941,164.455c0,0,21.983,12.074,24.412,12.309s22.176-14.588,22.176-14.588
											s-19.807,17.72-22.794,16.779S454.941,164.455,454.941,164.455z"/>
										<g>
											<g>
												<path style="fill:#DC7379;" d="M466.502,223.751c0,0-22.001,80.668-20.466,91.119s6.984,6.443,8.088,3.064
													C455.228,314.555,458.844,248.608,466.502,223.751z"/>
												<path style="fill:#DC7379;" d="M491.044,224.717c0,0,18.161,81.654,16.134,92.017
													c-2.027,10.364-7.281,6.093-8.224,2.663C498.011,315.968,497.518,249.92,491.044,224.717z"/>
												<g>
													<path style="fill:#DC7379;" d="M479.524,228.46c-0.094-2.056-0.231-3.972-0.419-5.709
														C479.105,222.751,479.266,224.864,479.524,228.46z"/>
													<path style="fill:#DC7379;" d="M479.524,228.548c1.335,29.832-6.307,89.586-5.885,93.025
														c0.452,3.68,5.052,8.882,8.513-1.498C485.069,311.327,480.905,248.186,479.524,228.548z"/>
												</g>
											</g>
											<path style="fill:#DC7379;" d="M455.921,183.735l6.855,37.404h5.989c0,0-7.353-15.713-11.235-38.338L455.921,183.735z"/>
										</g>
									</g>
								</g>
							</g>
						</g>
					</g>
				</g>
				<g>
					<rect x="311.717" y="54.219" style="fill:#EC8C8E;" width="126.284" height="42.2"/>
					<g>
						<g>
							<path style="fill:#F3E8D3;" d="M344,67.663v0.653l-5.317,0.363v-0.944c0-1.452-0.99-2.214-2.814-2.214
								s-2.814,0.762-2.814,2.214v0.327c0,1.488,0.938,2.759,4.639,4.937c5.057,2.977,6.933,5.083,6.933,8.131v1.271
								c0,3.63-3.075,5.699-8.548,5.699s-8.548-2.069-8.548-5.699v-1.706l5.317-0.363v1.815c0,1.597,1.042,2.396,3.127,2.396
								s3.127-0.799,3.127-2.396v-0.835c0-1.597-1.095-2.868-4.795-5.046c-5.056-2.977-6.776-5.082-6.776-8.059v-0.544
								c0-3.63,2.971-5.699,8.236-5.699C341.029,61.964,344,64.033,344,67.663z"/>
							<path style="fill:#F3E8D3;" d="M370.898,87.737h-5.63l-1.199-5.772h-6.099l-1.198,5.772h-5.525l6.308-25.411h7.036
								L370.898,87.737z M360.942,67.772l-2.241,10.708h4.639l-2.241-10.708H360.942z"/>
							<path style="fill:#F3E8D3;" d="M385.598,84.107h9.226v3.63h-14.751V62.327h5.525V84.107z"/>
							<path style="fill:#F3E8D3;" d="M419.116,65.884h-10.008v7.188h8.079v3.558h-8.079v7.55h10.008v3.558h-15.533V62.327h15.533
								V65.884z"/>
						</g>
					</g>
				</g>
				<g>
					<g>
						<g>
							<rect x="36.208" y="54.197" style="fill:#DBC8A7;" width="221.273" height="104.646"/>
							<rect x="47.716" y="66.123" style="fill:#F3E8D3;" width="196.218" height="78.767"/>
						</g>
						<g>
							<g>
								<path style="fill:none;stroke:#9F3D3B;stroke-width:3;stroke-miterlimit:10;" d="M81.035,110.914
									c0,0-1.436-12.85,8.903-14.38s13.02,10.119,12.924,12.912"/>
								<g>
									<path style="fill:#A63E3E;" d="M57.973,144.219c0,0,11-35.572,13.489-35.764c2.489-0.192,13.27,36.271,11.547,37.201
										C81.286,146.585,57.354,146.196,57.973,144.219z"/>
									<g>
										<g>
											<path style="fill:#C74C4B;" d="M71.462,108.455c0,0,37.91-0.068,40.399,0.992s7.276,36.048,6.318,35.62
												c-0.957-0.427-33.65,1.848-37.527,0.934C78.865,145.579,77.397,124.149,71.462,108.455z"/>
											<path style="fill:#E1605F;" d="M80.652,146c0,0,11.009-16.696,18.572-17.529c7.563-0.832,18.955,16.595,18.955,16.595
												S91.47,147.526,80.652,146z"/>
										</g>
										<ellipse style="fill:#F8C581;" cx="99.416" cy="128.012" rx="4.868" ry="5.186"/>
									</g>
								</g>
							</g>
							<g>
								<g>
									<path style="fill:#EC8C8E;" d="M233.091,144.89h-12.763c-2.631,0-4.765-2.133-4.765-4.765v-33.177
										c0-2.631,2.133-4.765,4.765-4.765h12.763c2.631,0,4.765,2.133,4.765,4.765v33.177
										C237.855,142.757,235.722,144.89,233.091,144.89z"/>
									<rect x="215.563" y="108.472" style="fill:#F8C581;" width="22.292" height="2.821"/>
								</g>
								<g>
									<path style="fill:#C74C4B;" d="M219.356,144.89h-7.285c-2.631,0-4.765-2.133-4.765-4.765v-10.059
										c0-2.631,2.133-4.765,4.765-4.765h7.285c2.631,0,4.765,2.133,4.765,4.765v10.059
										C224.121,142.757,221.988,144.89,219.356,144.89z"/>
									<rect x="207.306" y="129.843" style="fill:#F8C581;" width="16.814" height="2.821"/>
								</g>
							</g>
						</g>
					</g>
					<g>
						<g>
							<rect x="649.752" y="54.197" style="fill:#DBC8A7;" width="63.675" height="136.823"/>
							<rect x="658.318" y="61.888" style="fill:#F3E8D3;" width="46.612" height="121.703"/>
						</g>
						<g>
							<rect x="649.752" y="222.471" style="fill:#DBC8A7;" width="63.675" height="192.343"/>
							<rect x="658.318" y="230.44" style="fill:#F3E8D3;" width="46.612" height="176.411"/>
						</g>
					</g>
					<g>
						<g>
							<path style="fill:#C74C4B;" d="M93.793,379.895c0,0,2.25-10.412-1.986-14.824c-4.236-4.412-10.019-1.235-14.356-4.588
								c-4.337-3.353-5.943-10.412-12.208-7.412s-8.353,8.294-14.296,8.647c-5.943,0.353-9.638,13.765-9.317,16.235
								C41.95,380.424,93.793,379.895,93.793,379.895z"/>
							<path style="fill:#C74C4B;" d="M139.714,382.594c0,0,2.25-10.412-1.986-14.824s-10.019-1.235-14.356-4.588
								c-4.337-3.353-5.943-10.412-12.208-7.412s-8.353,8.294-14.296,8.647c-5.943,0.353-9.638,13.765-9.317,16.235
								S139.714,382.594,139.714,382.594z"/>
							<path style="fill:#433A4D;" d="M116.402,377.616c0,0,1.969-10.412-1.739-14.824c-3.707-4.412-8.769-1.235-12.565-4.588
								c-3.796-3.353-5.202-10.412-10.685-7.412s-7.311,8.294-12.513,8.647c-5.202,0.353-8.435,13.765-8.154,16.235
								C71.028,378.145,116.402,377.616,116.402,377.616z"/>
						</g>
						<g>
							<g>
								<g>
									
										<rect x="36.981" y="368.697" transform="matrix(-1 -4.490420e-11 4.490420e-11 -1 152.5494 809.2657)" style="fill:#D3787E;" width="78.586" height="71.871"/>
									<polygon style="fill:#BB6F76;" points="36.981,391.187 36.981,394.763 53.804,394.763 61.175,368.697 									"/>
								</g>
								<g>
									
										<rect x="61.175" y="368.697" transform="matrix(-1 -4.490420e-11 4.490420e-11 -1 200.9362 809.2657)" style="fill:#EC8C8E;" width="78.586" height="71.871"/>
									<polygon style="fill:#D3787E;" points="139.761,368.697 139.761,394.763 70.715,394.763 61.175,368.697 									"/>
								</g>
							</g>
							<g>
								<polygon style="fill:#F1A8AD;" points="73.323,390.963 151.909,390.963 139.761,368.697 61.175,368.697 								"/>
								<polygon style="fill:#F1A8AD;" points="61.175,368.697 53.539,390.963 27.01,391.321 36.981,368.697 								"/>
							</g>
						</g>
					</g>
				</g>
				<g>
					<rect x="197.839" y="380.115" style="fill:#DBC8A7;" width="90.23" height="4.578"/>
					<g>
						<g>
							<rect x="205.399" y="375.284" style="fill:#433A4D;" width="34.464" height="4.596"/>
							<path style="fill:#EC8C8E;" d="M205.399,375.284c0,0,3.783-9.858,17.232-11.251v-12.125h16.733l0.499,23.376H205.399z"/>
						</g>
						<g>
							<rect x="246.045" y="375.284" style="fill:#433A4D;" width="34.464" height="4.596"/>
							<path style="fill:#EC8C8E;" d="M246.045,375.284c0,0,3.783-9.858,17.232-11.251v-12.125h16.733l0.499,23.376H246.045z"/>
						</g>
					</g>
				</g>
			</g>
		</g>
		<g>
			<g>
				<g>
					<g>
						<g>
							<g>
								<g>
									<path style="fill:#342B3D;" d="M136.198,383.155c0,0-6.585,31.968-7.672,33.03c-1.086,1.062-3.784,2.106-4.412,1.72
										s-9.227-36.507-9.052-38.022c0.175-1.515,18.148-6.463,18.148-6.463L136.198,383.155z"/>
									<path style="fill:#6A5470;" d="M124.115,417.905c0,0-1.962,0.422-2.223,0.174s-10.329-36.081-9.741-37.053
										c0.588-0.971,2.912-1.144,2.912-1.144L124.115,417.905z"/>
								</g>
								<g>
									<path style="fill:#F6B95C;" d="M129.651,396.427l3.83,1.231c0.556,0.179,1.152-0.127,1.331-0.684l0,0
										c0.179-0.556-0.127-1.152-0.684-1.331l-3.83-1.231c-0.556-0.179-1.152,0.127-1.331,0.684l0,0
										C128.789,395.652,129.095,396.248,129.651,396.427z"/>
									<path style="fill:#F6B95C;" d="M128.541,401.217l3.83,1.231c0.556,0.179,1.152-0.127,1.331-0.684l0,0
										c0.179-0.556-0.127-1.152-0.684-1.331l-3.83-1.231c-0.556-0.179-1.152,0.127-1.331,0.684l0,0
										C127.678,400.442,127.984,401.038,128.541,401.217z"/>
									<path style="fill:#F6B95C;" d="M127.43,406.007l3.83,1.231c0.556,0.179,1.152-0.127,1.331-0.684l0,0
										c0.179-0.556-0.127-1.152-0.684-1.331l-3.83-1.231c-0.556-0.179-1.152,0.127-1.331,0.684l0,0
										C126.568,405.232,126.874,405.828,127.43,406.007z"/>
								</g>
							</g>
							<polygon style="fill:#1F1A2B;" points="130.248,374.261 127.318,375.125 134.573,390.905 135.054,388.631 							"/>
						</g>
						<g>
							<g>
								<g>
									<path style="fill:#342B3D;" d="M174.802,416.782c0,0,27.804,17.096,28.432,18.48c0.628,1.384,0.689,4.276,0.112,4.734
										c-0.577,0.458-37.465-3.781-38.829-4.462s0.116-19.264,0.116-19.264L174.802,416.782z"/>
									<path style="fill:#6A5470;" d="M203.346,439.996c0,0-0.273,1.988-0.594,2.149s-37.44-2.6-38.153-3.484
										c-0.713-0.884-0.081-3.128-0.081-3.128L203.346,439.996z"/>
								</g>
								<g>
									<path style="fill:#F6B95C;" d="M185.044,427.464l2.464-3.18c0.358-0.462,0.274-1.127-0.188-1.485h0
										c-0.462-0.358-1.127-0.274-1.485,0.188l-2.464,3.18c-0.358,0.462-0.274,1.127,0.188,1.485l0,0
										C184.022,428.011,184.686,427.926,185.044,427.464z"/>
									<path style="fill:#F6B95C;" d="M189.168,430.142l2.464-3.18c0.358-0.462,0.274-1.127-0.188-1.485l0,0
										c-0.462-0.358-1.127-0.274-1.485,0.188l-2.464,3.18c-0.358,0.462-0.274,1.127,0.188,1.485l0,0
										C188.146,430.689,188.81,430.604,189.168,430.142z"/>
									<path style="fill:#F6B95C;" d="M193.292,432.82l2.464-3.18c0.358-0.462,0.274-1.127-0.188-1.485h0
										c-0.462-0.358-1.127-0.274-1.485,0.188l-2.464,3.18c-0.358,0.462-0.274,1.127,0.188,1.485l0,0
										C192.269,433.366,192.934,433.282,193.292,432.82z"/>
								</g>
								<circle style="fill:#F6B95C;" cx="172.304" cy="428.734" r="3.508"/>
							</g>
							<polygon style="fill:#1F1A2B;" points="179.918,419.948 164.187,423.068 164.03,426.483 180.934,420.581 							"/>
						</g>
					</g>
					<g>
						<g>
							<g>
								<path style="fill:#342B3D;" d="M172.117,290.579c3.57-19.573,3.749-22.708,3.749-22.708l34.812-4.927
									c0,0,2.674,65.103-28.13,99.848c-16.317,18.405-34.018,31.019-39.524,34.75c-0.991,0.672-2.332,0.446-3.037-0.522
									c-2.903-3.983-9.731-14.938-10.905-31.201C129.081,365.82,165.904,324.641,172.117,290.579z"/>
								<path style="fill:#433A4D;" d="M195.857,274.199c0,0-3.509,71.199-14.919,90.384l0,0c0,0,20.729-18.061,26.674-57.8
									c4.393-29.369,2.932-45.386,2.932-45.386l-20.98,17.775"/>
							</g>
							
								<path style="fill:none;stroke:#211C2D;stroke-width:0.5;stroke-linecap:round;stroke-linejoin:round;stroke-miterlimit:10;stroke-dasharray:12;" d="
								M185.44,289.297c0,0-10.176,57.011-51.522,78.862"/>
						</g>
						<g>
							<g>
								<g>
									<g>
										<g>
											<path style="fill:#433A4D;" d="M172.671,265.64l12.591,150.691c0.104,1.245-0.692,2.385-1.898,2.712
												c-5.89,1.598-22.404,5.814-24.352,3.428c-2.377-2.911-22.654-149.262-23.477-155.884
												C134.711,259.964,170.507,259.715,172.671,265.64z"/>
										</g>
									</g>
								</g>
								<path style="fill:#433A4D;" d="M135.534,266.586c-0.497-8.273,8.724-27.962,10.738-33.583
									c0.307-0.857,0.633-1.247,1.33-1.083c5.357,1.261,28.77,6.102,50.724-2.502c3.083-1.208,11.255,18.223,12.352,33.527
									l-36.03,26.353L135.534,266.586z"/>
							</g>
							<g>
								<g>
									
										<path style="fill:none;stroke:#332A3C;stroke-width:0.5;stroke-linecap:round;stroke-linejoin:round;stroke-miterlimit:10;" d="
										M200.328,240.266c0,0-19.946,9.315-49.809,2.142"/>
									
										<path style="fill:none;stroke:#332A3C;stroke-width:0.5;stroke-linecap:round;stroke-linejoin:round;stroke-miterlimit:10;" d="
										M161.66,246.586c0,0-2.731,15.103-6.427,17.192c-3.695,2.089-13.657,1.446-13.657,1.446"/>
									
										<path style="fill:none;stroke:#332A3C;stroke-width:0.5;stroke-linecap:round;stroke-linejoin:round;stroke-miterlimit:10;" d="
										M196.9,245.122c0,0,2.464,11.64,4.606,12.389c2.142,0.75,7.284,0.75,7.284,0.75"/>
									
										<path style="fill:none;stroke:#332A3C;stroke-width:0.5;stroke-linecap:round;stroke-linejoin:round;stroke-miterlimit:10;" d="
										M185.44,247.764c0,0,2.035,20.994,1.178,23.565c-0.857,2.571-8.462,7.177-8.462,7.177"/>
								</g>
								<g>
									<g>
										<path style="fill:none;stroke:#332A3C;stroke-width:0.5;stroke-linecap:round;stroke-linejoin:round;" d="
											M141.576,276.256c0,0,0.339,2.151,0.926,5.923"/>
										
											<path style="fill:none;stroke:#332A3C;stroke-width:0.5;stroke-linecap:round;stroke-linejoin:round;stroke-dasharray:11.757,11.757;" d="
											M144.298,293.796c4.392,28.579,12.811,84.608,15.407,110.62"/>
										<path style="fill:none;stroke:#332A3C;stroke-width:0.5;stroke-linecap:round;stroke-linejoin:round;" d="
											M160.229,410.277c0.195,2.583,0.285,4.619,0.251,5.993"/>
									</g>
								</g>
							</g>
						</g>
					</g>
				</g>
				<g>
					<g>
						<path style="fill:#342B3D;" d="M162.47,102.722c0,0-14.311,1.199-21.364,13.402c-4.328,7.489-6.663,33.63-7.821,52.706
							c-0.671,11.048,8.86,19.983,19.843,18.612l46.272-5.774l-1.477-9.531c0,0-4.799-3.218-5.039-22.705
							s-1.489-33.269-6.542-38.733C181.29,105.235,175.619,100.4,162.47,102.722z"/>
						<g>
							<g>
								<g>
									<g>
										<g>
											<path style="fill:#ED9185;" d="M191.881,132.698c0,0,2.081-1.387,5.141-0.348s2.693,4.673,1.53,7.875
												s-4.039,5.971-6.671,5.567C189.25,145.389,188.882,133.912,191.881,132.698z"/>
											<path style="fill:#E16A5F;" d="M191.738,136.028c0,0,0.633-1.418,2.545-1.235c1.913,0.182,2.343,1.989,2.112,3.134
												c-0.23,1.145-0.627,2.612-3.274,2.73c0,0,0.946-1.051,0.541-2.017c-0.404-0.966-1.904-0.712-1.904-0.712L191.738,136.028
												z"/>
										</g>
										<g>
											
												<path style="fill:none;stroke:#001E3A;stroke-width:0.75;stroke-linecap:round;stroke-linejoin:round;stroke-miterlimit:10;" d="
												M197.471,136.119"/>
											
												<path style="fill:none;stroke:#151943;stroke-width:0.5;stroke-linecap:round;stroke-linejoin:round;stroke-miterlimit:10;" d="
												M192.106,137.961c0,0,1.448-0.322,1.55,1.005c0.102,1.327-1,2.346-1.55,2.462"/>
											
												<path style="fill:none;stroke:#332A3C;stroke-width:0.5;stroke-linecap:round;stroke-linejoin:round;stroke-miterlimit:10;" d="
												M191.738,136.028c0,0,0.958-1.251,2.357-1.152c1.232,0.088,2.519,1.196,2.295,3.085c-0.183,1.54-1.428,2.101-1.428,2.101
												"/>
										</g>
									</g>
									<g>
										<g>
											<path style="fill:#ED9185;" d="M149.999,132.089c0,0-2.081-1.387-5.141-0.348c-3.06,1.038-2.693,4.673-1.53,7.875
												s4.039,5.971,6.671,5.567S152.998,133.303,149.999,132.089z"/>
											<path style="fill:#E16A5F;" d="M150.142,135.419c0,0-0.633-1.418-2.545-1.235s-2.343,1.989-2.112,3.134
												c0.23,1.145,0.627,2.612,3.274,2.73c0,0-0.946-1.051-0.541-2.017c0.404-0.966,1.904-0.712,1.904-0.712L150.142,135.419z"
												/>
										</g>
										<g>
											
												<path style="fill:none;stroke:#001E3A;stroke-width:0.75;stroke-linecap:round;stroke-linejoin:round;stroke-miterlimit:10;" d="
												M144.409,135.51"/>
											
												<path style="fill:none;stroke:#332A3C;stroke-width:0.5;stroke-linecap:round;stroke-linejoin:round;stroke-miterlimit:10;" d="
												M149.775,137.352c0,0-1.448-0.322-1.55,1.005c-0.102,1.327,1,2.346,1.55,2.462"/>
											
												<path style="fill:none;stroke:#332A3C;stroke-width:0.5;stroke-linecap:round;stroke-linejoin:round;stroke-miterlimit:10;" d="
												M150.142,135.419c0,0-0.958-1.251-2.357-1.152c-1.232,0.088-2.519,1.196-2.295,3.085c0.183,1.54,1.428,2.101,1.428,2.101
												"/>
										</g>
									</g>
								</g>
								<g>
									<g>
										<rect x="164.563" y="157.545" style="fill:#ED9185;" width="12.465" height="9.962"/>
										<polygon style="fill:#E16A5F;" points="164.563,161.136 164.563,157.545 177.027,157.545 177.027,159.941 										"/>
									</g>
									<g>
										<g>
											<ellipse style="fill:#ED9185;" cx="171.444" cy="136.965" rx="21.81" ry="22.561"/>
											<path style="fill:#E16A5F;" d="M189.173,128.065c0,0-5.164-4.687-6.771-4.446c-1.607,0.241-4.336,3.133-11.608,3.615
												s-13.247,1.312-14.237,4.73c-0.99,3.418,0,0,0,0s-1.067-3.444,7.528-7.461s18.316-6.025,18.316-6.025
												S188.875,122.309,189.173,128.065z"/>
										</g>
										<g>
											
												<path style="fill:none;stroke:#332A3C;stroke-width:0.5;stroke-linecap:round;stroke-linejoin:round;stroke-miterlimit:10;" d="
												M173.225,130.865c0,0-0.048,7.982,0.7,8.152c0.748,0.17,3.031,1.031,2.362,3.352c-0.595,2.066-2.68,1.621-2.68,1.621"/>
											
												<path style="fill:none;stroke:#332A3C;stroke-width:0.75;stroke-linecap:round;stroke-linejoin:round;stroke-miterlimit:10;" d="
												M169.051,146.919c0,0,2.782,2.745,6.568,1.031"/>
											<g>
												<path style="fill:#E16A5F;" d="M185.129,139.598c2.405-0.9,4.72-0.657,5.169,0.544c0.449,1.201-1.136,2.904-3.542,3.804
													c-2.405,0.9-4.72,0.657-5.169-0.544C181.138,142.201,182.723,140.498,185.129,139.598z"/>
												<g>
													<g>
														<g>
															<g>
																
																	<ellipse transform="matrix(0.9985 -0.0541 0.0541 0.9985 -7.095 10.176)" style="fill:#342B3D;" cx="184.584" cy="136.258" rx="1.718" ry="2.665"/>
															</g>
														</g>
														<g>
															<path style="fill:#342B3D;" d="M182.528,128.254c1.156-0.722,3.658,0.77,5.083,2.142
																c0.67,0.645,0.146,1.228,0.146,1.228s-2.318-1.635-4.438-1.166C181.199,130.928,181.371,128.975,182.528,128.254z"/>
														</g>
													</g>
												</g>
											</g>
											<g>
												<path style="fill:#E16A5F;" d="M161.752,140.863c-2.489-0.635-4.763-0.143-5.08,1.099
													c-0.317,1.242,1.443,2.765,3.932,3.4c2.489,0.635,4.763,0.143,5.08-1.099
													C166.001,143.021,164.241,141.498,161.752,140.863z"/>
												<g>
													<g>
														<g>
															<g>
																
																	<ellipse transform="matrix(0.9985 -0.0541 0.0541 0.9985 -7.1904 9.0027)" style="fill:#342B3D;" cx="162.844" cy="137.435" rx="1.718" ry="2.665"/>
															</g>
														</g>
														<g>
															<path style="fill:#342B3D;" d="M164.445,129.233c-1.228-0.593-3.554,1.16-4.822,2.678
																c-0.596,0.713-0.013,1.237-0.013,1.237s2.128-1.876,4.287-1.638C166.055,131.747,165.673,129.825,164.445,129.233z"
																/>
														</g>
													</g>
												</g>
											</g>
										</g>
									</g>
								</g>
							</g>
							<g>
								<g>
									<path style="fill:#342B3D;" d="M177.335,116.941c0,0,8.927,5.131,11.675,11.627c2.748,6.496,3.152,14.769,1.255,23.956
										c-1.897,9.186-1.752,16.336-0.901,18.742c0.852,2.407,10.037,5.532,10.037,5.532s-4.446-19.04-4.446-30.304
										s2.946-23.931-3.91-32.652S178.085,114.848,177.335,116.941z"/>
									<path style="fill:#342B3D;" d="M185.093,117.698c0,0-4.514,7.123-20.53,8.998c-12.022,1.407-6.879,12.602-12.021,13.889
										c-2.388,0.598-3.162-7.65-2.908-9.23c0.389-2.427-0.638-11.836,5.743-16.951c10.652-8.539,22.856-3.012,24.71-1.144
										L185.093,117.698z"/>
								</g>
								<g>
									<g>
										<g>
											<path style="fill:none;stroke:#483D55;stroke-linecap:round;stroke-linejoin:round;stroke-miterlimit:10;" d="
												M181.06,116.714c0,0,2.386-8.023-6.244-11.251c-8.63-3.228-18.181,1.607-18.181,1.607"/>
											<path style="fill:none;stroke:#483D55;stroke-linecap:round;stroke-linejoin:round;stroke-miterlimit:10;" d="
												M179.35,117.835c0,0-1.687-7.792-10.765-8.516s-15.023,5.141-16.147,6.909"/>
										</g>
										<path style="fill:none;stroke:#483D55;stroke-linecap:round;stroke-linejoin:round;stroke-miterlimit:10;" d="
											M140.682,175.998c0,0-4.927-0.376-4.177-13.041c0.75-12.666,2.05-23.28,2.05-23.28"/>
									</g>
									<g>
										<path style="fill:none;stroke:#483D55;stroke-linecap:round;stroke-linejoin:round;stroke-miterlimit:10;" d="
											M194.095,170.535c0,0-1.397-12.532-0.841-20.137"/>
										<path style="fill:none;stroke:#483D55;stroke-linecap:round;stroke-linejoin:round;stroke-miterlimit:10;" d="
											M193.254,128.761c0,0-0.001-16.522-8.161-15.987"/>
									</g>
								</g>
							</g>
						</g>
					</g>
					<g>
						<g>
							<g>
								<path style="fill:#DB9E4A;" d="M184.531,168.748c0,0,26.96,17.223,41.585,12.248c14.625-4.975,15.558-18.193,21.679-20.2
									c6.121-2.007,14.474,3.595,18.471,13.505s-4.56,26.379-22.031,38.045c-10.186,6.802-26.274,5.078-35.869,2.19
									c-7.463-2.246-13.924-10.429-16.953-17.611C186.616,185.558,184.531,168.748,184.531,168.748z"/>
								<path style="fill:#F8C581;" d="M255.038,161.394c0,0,2.5-4.067,3.386-3.818c0.865,0.244,7.341,6.447,10.158,11.346
									c0.134,0.233,0.148,0.51,0.049,0.76c-0.497,1.252-2.049,4.998-2.515,4.258C265.064,172.273,264.19,168.095,255.038,161.394z
									"/>
							</g>
							<path style="fill:none;stroke:#F3AF64;stroke-miterlimit:10;" d="M264.174,176.376c0,0,0.85,9.994-10.075,22.267
								c-10.926,12.273-31.277,15.915-47.987,9.381"/>
							<g>
								<g>
									<path style="fill:#ED9185;" d="M268.583,168.923c-2.081-3.618-6.151-7.941-8.489-10.056
										c1.269-2.761,4.287-3.474,5.465-6.62c1.777-4.743,2.225-7.942,4.044-6.266c0.916,0.844,1.053,2.406,0.829,4.216
										l1.041-1.879l12.937,10.288c0,0-4.86,4.479-6.765,5.288c-1.618,0.687-5.127,4.598-8.969,5.338
										C268.661,169.126,268.638,169.019,268.583,168.923z"/>
								</g>
								<g>
									<path style="fill:#E16A5F;" d="M268.86,160.923c0,0,0.627-2.972-0.972-5.258
										C267.888,155.666,271.236,158.072,268.86,160.923z"/>
									<path style="fill:#E16A5F;" d="M271.472,148.319c-0.098-0.018-1.515,2.463-1.74,3.488
										c-0.235,1.067-0.504,2.354-0.148,2.558c0.357,0.204,2.041,1.601,2.821,2.544c0.779,0.943,1.87,2.002,2.364,2.709
										c0.494,0.707,1.543,3.014,1.792,3.175c0.249,0.161,1.398,0.45,2.483,0.307c1.085-0.143,5.941-4.698,5.941-4.698
										s-4.196,1.509-5.346,1.633c-1.149,0.125-7.853-5.657-8.289-6.53S271.472,148.319,271.472,148.319z"/>
								</g>
							</g>
							<g>
								<g>
									<g>
										<g>
											<path style="fill:none;stroke:#332A3C;stroke-linecap:round;stroke-linejoin:round;stroke-miterlimit:10;" d="
												M278.291,181.346c0,0,4.449-39.629-13.271-34.114c-16.891,5.258-12.729,39.812-12.729,39.812"/>
											<circle style="fill:#342B3D;" cx="278.06" cy="180.953" r="1.955"/>
											<circle style="fill:#342B3D;" cx="252.385" cy="187.228" r="1.955"/>
										</g>
										<g>
											<g>
												<polygon style="fill:#C74C4B;" points="282.873,176.873 309.446,245.527 242.337,260.435 239.929,185.111 												
													"/>
												<polygon style="fill:#E86D69;" points="294.396,174.4 320.969,243.054 253.861,257.962 251.453,182.637 												"/>
											</g>
											<polygon style="fill:#F3E8D3;" points="290.965,186.298 298.226,204.734 260.98,212.99 260.039,193.254 											"/>
										</g>
										<g>
											<path style="fill:none;stroke:#332A3C;stroke-linecap:round;stroke-linejoin:round;stroke-miterlimit:10;" d="
												M285.398,181.25c0,0-2.659-39.534-20.378-34.018c-16.891,5.258-5.622,39.716-5.622,39.716"/>
											<circle style="fill:#342B3D;" cx="285.167" cy="180.857" r="1.955"/>
											<circle style="fill:#342B3D;" cx="259.492" cy="187.132" r="1.955"/>
										</g>
									</g>
									<g>
										<g>
											<path style="fill:none;stroke:#332A3C;stroke-linecap:round;stroke-linejoin:round;stroke-miterlimit:10;" d="
												M291.392,176.477c0,0-16.224-36.429-28.714-22.702c-11.906,13.085,9.175,40.778,9.175,40.778"/>
											<circle style="fill:#342B3D;" cx="290.994" cy="176.255" r="1.955"/>
											<circle style="fill:#342B3D;" cx="272.028" cy="194.663" r="1.955"/>
										</g>
										<g>
											<g>
												<g>
													<g>
														<polygon style="fill:#342B3D;" points="293.079,170.3 350.749,216.058 300.42,262.884 260.214,199.142 														
															"/>
													</g>
													<g>
														<polygon style="fill:#433A4D;" points="301.765,162.334 359.435,208.091 309.106,254.918 268.9,191.176 
																													"/>
													</g>
												</g>
											</g>
											<polygon style="fill:#F3E8D3;" points="304.829,174.332 320.424,186.556 292.481,212.53 281.68,195.986 											"/>
										</g>
										<g>
											<path style="fill:none;stroke:#332A3C;stroke-linecap:round;stroke-linejoin:round;stroke-miterlimit:10;" d="
												M297.473,172.797c0,0-22.305-32.749-34.795-19.022c-11.906,13.085,15.256,37.097,15.256,37.097"/>
											<circle style="fill:#342B3D;" cx="297.075" cy="172.575" r="1.955"/>
											<circle style="fill:#342B3D;" cx="278.109" cy="190.983" r="1.955"/>
										</g>
									</g>
								</g>
								<g>
									<path style="fill:#EE958E;" d="M269.688,153.883c0,0,1.021-4.613,1.887-5.71c0.866-1.096,4.108-2.717,5.098-2.936
										s2.339,2.126,1.87,3.138c0,0,1.726,0.29,2.583,1.35s0.44,1.992,0.44,1.992s1.124,0.075,1.622,1.387
										c0.498,1.312,0.498,1.312,0.498,1.312s0.889,0.579,1.478,1.677c0.192,0.358,0.311,0.718,0.384,1.041
										c0.134,0.591-0.231,1.198-0.844,1.408c-0.589,0.202-1.448,0.579-2.566,1.284c-1.694,1.068-2.954,2.613-3.963,2.86
										c-1.01,0.247-2.32-1.35-2.055-2.502c0,0-1.284-0.518-1.707-1.491c-0.423-0.973-0.066-1.463-0.066-1.463
										s-1.28-0.073-1.858-0.656c-0.579-0.583-0.222-1.357-0.222-1.357S270.138,154.972,269.688,153.883z"/>
									<g>
										<path style="fill:#E16A5F;" d="M272.266,155.219c0,0,1.782-4.393,2.245-4.762c0.464-0.369,4.032-2.082,4.032-2.082
											s-4.03,1.5-4.45,1.835C273.674,150.545,272.266,155.219,272.266,155.219z"/>
										<path style="fill:#E16A5F;" d="M274.346,157.231c0,0,2.231-3.886,3.121-4.325c0.89-0.439,4.099-1.188,4.099-1.188
											s-3.484,1.271-4.057,1.615C276.936,153.678,274.346,157.231,274.346,157.231z"/>
										<path style="fill:#E16A5F;" d="M276.118,160.185c0,0,2.775-3.522,3.456-3.964c0.681-0.441,4.11-1.805,4.11-1.805
											s-3.232,1.805-3.939,2.179C279.039,156.97,276.118,160.185,276.118,160.185z"/>
									</g>
								</g>
							</g>
						</g>
						<g>
							<g>
								<path style="fill:#F6B95C;" d="M194.62,181.087c4.045,7.391,13.17,13.484,7.543,30.14
									c-3.979,11.778-3.846,18.767-3.846,18.767s-25.669,9.795-50.714,1.925l0,0c0,0-14.751-29.896-15.81-34.208
									c-1.059-4.312,12.392-23.136,12.392-23.136s10.176-4.927,15.103-5.784c2.534-0.441,7.712-0.303,12.532-0.696
									c4.551-0.372,8.765-1.314,10.733-0.482C186.605,169.327,189.374,173.945,194.62,181.087z"/>
								<g>
									<path style="fill:none;stroke:#D4994B;stroke-miterlimit:10;" d="M176.465,173.791c0,0,5.527,14.248,7.286,24.27
										c1.759,10.022-0.011,32.194-0.011,32.194"/>
									<circle style="fill:#DB9E4A;" cx="173.467" cy="177.161" r="2.586"/>
									<circle style="fill:#DB9E4A;" cx="177.643" cy="198.644" r="2.586"/>
									<circle style="fill:#DB9E4A;" cx="179.794" cy="218.363" r="2.586"/>
									<path style="fill:none;stroke:#D4994B;stroke-miterlimit:10;" d="M167.159,186.977c0.285,0.919,3.337,16.283,1.811,17.995
										c-1.527,1.712-10.845,0.718-12.13-0.002c-0.997-0.558-2.522-15.61-2.522-15.61L167.159,186.977z"/>
								</g>
							</g>
							<g>
								<g>
									<path style="fill:#F8C581;" d="M176.773,172.058c0,0-9.599-10.251-15.803-8.644s-8.02,7.295-5.649,8.253
										C157.692,172.626,167.84,176.236,176.773,172.058z"/>
									<path style="fill:#F8C581;" d="M167.159,172.883c0,0,7.754-11.167,13.496-9.812c5.742,1.355,7.653,6.965,5.527,8.018
										C184.057,172.141,174.55,175.754,167.159,172.883z"/>
								</g>
							</g>
						</g>
						<g>
							<g>
								<g>
									<g>
										<g>
											<g>
												<path style="fill:#ED9185;" d="M73.399,200.471c0,0,1.832-3.262,1.41-6.548c-0.723-5.637-5.304-4.921-7.42-8.73
													c-2.46-4.427-3.377-7.524-4.928-5.598c-1.833,2.278,1.142,7.818,2.788,11.474
													C66.896,194.725,69.787,201.487,73.399,200.471z"/>
												<path style="fill:#ED9185;" d="M72.693,197.474c0,0-1.095,3.902-3.813,4.74c-4.452,1.373-9.713-3.195-11.717-3.712
													c-2.004-0.517-7.474-4.227-7.474-4.227l11.27-12.091L72.693,197.474z"/>
											</g>
										</g>
										<path style="fill:#E16A5F;" d="M65.41,194.262c0,0-1.06-2.846,0.182-5.344C65.592,188.918,62.638,191.794,65.41,194.262z"
											/>
									</g>
									<path style="fill:#E16A5F;" d="M60.959,182.183c0.094-0.033,1.863,2.212,2.238,3.191c0.39,1.02,0.848,2.254,0.525,2.508
										c-0.322,0.255-1.781,1.886-2.413,2.934s-1.553,2.257-1.936,3.03c-0.383,0.772-1.079,3.209-1.301,3.406
										s-1.316,0.652-2.41,0.672c-1.094,0.02-6.571-3.765-6.571-3.765s4.374,0.87,5.529,0.823
										c1.155-0.047,6.928-6.758,7.229-7.686S60.959,182.183,60.959,182.183z"/>
								</g>
								<g>
									<g>
										<path style="fill:none;stroke:#332A3C;stroke-linecap:round;stroke-linejoin:round;stroke-miterlimit:10;" d="
											M51.454,216.485c0,0,12.971-36.846,10.374-39.483c-2.596-2.637-14.979,35.984-15.156,36.666"/>
										<path style="fill:none;stroke:#332A3C;stroke-linecap:round;stroke-linejoin:round;stroke-miterlimit:10;" d="
											M66.13,218.369c0,0-0.046-39.062-3.372-40.684c-3.326-1.621-2.135,38.919-2.075,39.621"/>
									</g>
									<g>
										<path style="fill:#E86D69;" d="M57.104,213.748c0.065,0.881-9.455,68.945-9.455,68.945l-25.278-7.057l21.391-64.393
											L57.104,213.748z"/>
										<polygon style="fill:#C74C4B;" points="46.201,278.155 37.509,264.667 25.08,273.342 										"/>
									</g>
									<g>
										<g>
											<g>
												<path style="fill:#433A4D;" d="M70.956,210.383c0.244,0.849,4.853,69.421,4.853,69.421l-26.187-1.735l7.762-67.408
													L70.956,210.383z"/>
											</g>
											<g>
												<polygon style="fill:#342B3D;" points="73.464,275.659 62.195,264.234 51.805,275.269 												"/>
											</g>
										</g>
									</g>
								</g>
								<g>
									<path style="fill:#EE958E;" d="M63.548,187.421c0,0-1.693-4.411-2.712-5.367c-1.018-0.956-4.465-2.078-5.476-2.148
										s-1.998,2.449-1.385,3.381c0,0-1.664,0.543-2.354,1.718c-0.691,1.175-0.14,2.036-0.14,2.036s-1.101,0.241-1.398,1.612
										c-0.298,1.371-0.298,1.371-0.298,1.371s-0.794,0.704-1.213,1.878c-0.137,0.382-0.201,0.756-0.225,1.087
										c-0.045,0.604,0.406,1.15,1.043,1.267c0.612,0.112,1.517,0.358,2.728,0.89c1.833,0.805,3.308,2.147,4.343,2.242
										s2.094-1.679,1.661-2.779c0,0,1.193-0.702,1.467-1.727c0.274-1.025-0.152-1.457-0.152-1.457s1.255-0.262,1.741-0.924
										s0.018-1.375,0.018-1.375S63.264,188.565,63.548,187.421z"/>
									<g>
										<path style="fill:#E16A5F;" d="M61.197,189.125c0,0-2.413-4.08-2.926-4.376s-4.296-1.461-4.296-1.461
											s4.208,0.886,4.672,1.155C59.112,184.711,61.197,189.125,61.197,189.125z"/>
										<path style="fill:#E16A5F;" d="M59.438,191.423c0,0-2.782-3.512-3.727-3.815c-0.945-0.302-4.23-0.568-4.23-0.568
											s3.634,0.74,4.251,0.996S59.438,191.423,59.438,191.423z"/>
										<path style="fill:#E16A5F;" d="M58.122,194.607c0,0-3.266-3.072-4.006-3.408c-0.739-0.336-4.332-1.176-4.332-1.176
											s3.464,1.306,4.218,1.571S58.122,194.607,58.122,194.607z"/>
									</g>
								</g>
							</g>
							<g>
								<g>
									<path style="fill:#DB9E4A;" d="M144.184,174.576c0,0-16.388,24.636-31.813,25.493
										c-15.424,0.857-21.234-11.053-27.661-10.625c-6.427,0.428-12.078,8.748-12.078,19.434s14.096,22.758,34.662,27.043
										c11.991,2.498,26.266-5.118,34.085-11.386c6.081-4.875,9.013-14.881,9.136-22.674
										C150.71,189.524,144.184,174.576,144.184,174.576z"/>
									<path style="fill:#F8C581;" d="M78.803,192.229c0,0-3.73-2.979-4.48-2.444s-4.499,9.212-5.356,14.782
										c0,0,2.619,2.999,3.666,2.999S72.464,201.635,78.803,192.229z"/>
								</g>
								<path style="fill:none;stroke:#F3AF64;stroke-miterlimit:10;" d="M146.733,209.92c0,0-10.888,16.468-27.597,19.444
									s-38.983-10.661-42.417-17.162"/>
							</g>
						</g>
					</g>
				</g>
			</g>
			<g>
				<g>
					<g>
						<path style="fill:#342B3D;" d="M632.711,96.774c0,0,7.298-4.353,15.651,0c8.353,4.353,10.485,9.647,9.758,13.882
							c-0.728,4.235-0.816,2.243,5.184,10.71s1.647,16.82-0.706,22.82c-2.353,6,0.353,7.765,0.941,11.647
							c0.588,3.882-6.97,12.706-14.014,13.059c-7.044,0.353-25.717-0.471-25.717-0.471L632.711,96.774z"/>
						<path style="fill:#342B3D;" d="M633.774,98.774l-1.063-2c0,0-5.306-5.035-14.714-1.471
							c-9.408,3.565-11.449,10.882-12.843,14.294c-1.393,3.412-3.969,4.105-6.44,13.229s2.824,13.712,2.118,19.947
							c-0.706,6.235-4.838,5.647-4.654,11.647s13.083,13.059,24.398,13.059c11.315,0,9.829,0,9.829,0L633.774,98.774z"/>
					</g>
					<g>
						<g>
							<g>
								<g>
									
										<rect x="623.602" y="150.055" transform="matrix(-0.9973 -0.0729 0.0729 -0.9973 1246.6906 355.5764)" style="fill:#DB756C;" width="12.465" height="9.962"/>
									<polygon style="fill:#C65B55;" points="636.152,154.104 636.413,150.523 623.982,149.614 623.807,152.004 									"/>
								</g>
								<g>
									<g>
										
											<ellipse transform="matrix(0.0729 -0.9973 0.9973 0.0729 455.8929 749.4276)" style="fill:#DB756C;" cx="631.051" cy="129.497" rx="22.561" ry="21.81"/>
										<path style="fill:#C65B55;" d="M614.017,119.328c0,0,11.73-2.764,13.315-2.407c1.585,0.357-0.099,2.208,7.118,3.219
											s11.073,1.973,11.812,5.454c0.738,3.481,0,0,0,0s1.316-3.357-6.964-7.99c-8.28-4.633-15.49-8.006-15.49-8.006
											S614.735,113.609,614.017,119.328z"/>
									</g>
									<g>
										
											<path style="fill:none;stroke:#332A3C;stroke-width:0.5;stroke-linecap:round;stroke-linejoin:round;stroke-miterlimit:10;" d="
											M629.72,123.283c0,0-0.534,7.964-1.292,8.08s-3.098,0.807-2.6,3.171c0.443,2.103,2.555,1.812,2.555,1.812"/>
										<path style="fill:#F3E8D3;" d="M632.711,139.598c0,0-3.61,2.309-7.261,0.323c0,0,0.279,4.424,2.529,4.777
											C630.23,145.051,632.266,142.686,632.711,139.598z"/>
										<g>
											<path style="fill:#C65B55;" d="M617.21,131.124c-2.333-1.073-4.659-0.999-5.195,0.166
												c-0.536,1.165,0.921,2.979,3.255,4.052c2.333,1.073,4.659,0.999,5.195-0.166
												C621.001,134.012,619.544,132.198,617.21,131.124z"/>
											<g>
												<g>
													<g>
														<g>
															
																<ellipse transform="matrix(0.1267 -0.9919 0.9919 0.1267 412.8922 724.6529)" style="fill:#342B3D;" cx="617.997" cy="127.833" rx="2.665" ry="1.718"/>
														</g>
													</g>
													<g>
														<path style="fill:#342B3D;" d="M620.632,120c-1.101-0.804-3.705,0.501-5.226,1.765
															c-0.715,0.594-0.235,1.214-0.235,1.214s2.431-1.462,4.512-0.839C621.762,122.764,621.732,120.804,620.632,120z"/>
													</g>
												</g>
											</g>
										</g>
										<g>
											<path style="fill:#C65B55;" d="M640.432,134.09c2.528-0.452,4.761,0.204,4.987,1.466
												c0.226,1.262-1.641,2.652-4.169,3.104c-2.528,0.452-4.761-0.204-4.987-1.466
												C636.037,135.933,637.904,134.543,640.432,134.09z"/>
											<g>
												<g>
													<g>
														<g>
															
																<ellipse transform="matrix(0.1267 -0.9919 0.9919 0.1267 429.0153 748.4844)" style="fill:#342B3D;" cx="639.594" cy="130.592" rx="2.665" ry="1.718"/>
														</g>
													</g>
													<g>
														<path style="fill:#342B3D;" d="M638.595,122.295c1.267-0.502,3.46,1.416,4.614,3.022
															c0.543,0.755-0.077,1.234-0.077,1.234s-1.986-2.026-4.156-1.946C636.806,124.685,637.327,122.796,638.595,122.295z"/>
													</g>
												</g>
											</g>
										</g>
									</g>
								</g>
							</g>
							<g>
								<g>
									<g>
										<g>
											<path style="fill:#DB756C;" d="M610.979,123.751c0,0-1.974-1.535-5.102-0.722c-3.128,0.813-3.026,4.464-2.1,7.743
												c0.926,3.278,3.593,6.25,6.247,6.039C612.678,136.6,613.881,125.18,610.979,123.751z"/>
											<path style="fill:#C65B55;" d="M610.879,127.082c0,0-0.528-1.46-2.448-1.418c-1.921,0.042-2.481,1.813-2.335,2.971
												c0.146,1.159,0.435,2.651,3.067,2.961c0,0-0.867-1.117-0.393-2.052c0.474-0.934,1.951-0.571,1.951-0.571L610.879,127.082
												z"/>
										</g>
										<g>
											
												<path style="fill:none;stroke:#001E3A;stroke-width:0.75;stroke-linecap:round;stroke-linejoin:round;stroke-miterlimit:10;" d="
												M605.155,126.756"/>
											
												<path style="fill:none;stroke:#151943;stroke-width:0.5;stroke-linecap:round;stroke-linejoin:round;stroke-miterlimit:10;" d="
												M610.371,128.983c0,0-1.421-0.427-1.62,0.889c-0.198,1.316,0.826,2.413,1.367,2.568"/>
											
												<path style="fill:none;stroke:#332A3C;stroke-width:0.5;stroke-linecap:round;stroke-linejoin:round;stroke-miterlimit:10;" d="
												M610.879,127.082c0,0-0.864-1.318-2.267-1.32c-1.236-0.002-2.6,1.01-2.513,2.909c0.07,1.549,1.271,2.199,1.271,2.199"/>
										</g>
									</g>
									<g>
										<g>
											<path style="fill:#DB756C;" d="M652.794,126.197c0,0,2.176-1.231,5.153,0.027c2.976,1.259,2.345,4.857,0.952,7.966
												c-1.393,3.109-4.464,5.661-7.059,5.066S649.715,127.189,652.794,126.197z"/>
											<path style="fill:#C65B55;" d="M652.409,129.508c0,0,0.734-1.368,2.628-1.046s2.191,2.154,1.878,3.279
												c-0.313,1.125-0.815,2.56-3.465,2.484c0,0,1.02-0.979,0.687-1.973c-0.333-0.993-1.847-0.849-1.847-0.849L652.409,129.508
												z"/>
										</g>
										<g>
											
												<path style="fill:none;stroke:#001E3A;stroke-width:0.75;stroke-linecap:round;stroke-linejoin:round;stroke-miterlimit:10;" d="
												M658.119,130.017"/>
											
												<path style="fill:none;stroke:#332A3C;stroke-width:0.5;stroke-linecap:round;stroke-linejoin:round;stroke-miterlimit:10;" d="
												M652.634,131.462c0,0,1.468-0.216,1.473,1.115c0.005,1.331-1.168,2.267-1.726,2.342"/>
											
												<path style="fill:none;stroke:#332A3C;stroke-width:0.5;stroke-linecap:round;stroke-linejoin:round;stroke-miterlimit:10;" d="
												M652.409,129.508c0,0,1.046-1.178,2.435-0.977c1.223,0.178,2.425,1.377,2.064,3.244
												c-0.295,1.523-1.577,1.991-1.577,1.991"/>
										</g>
									</g>
								</g>
								<g>
									<path style="fill:#342B3D;" d="M633.609,103.184c0,0-12.07,12.531,5.054,16.572c11.781,2.78,6.783,23.318,11.817,24.977
										c2.338,0.771,2.87-17.647,2.732-19.241c-0.212-2.449,1.499-11.758-4.492-17.324l-4.005-5.099L633.609,103.184z"/>
									<path style="fill:#342B3D;" d="M626.043,100.638c0,0,17.389,11.253-5.054,16.572c-14.508,3.438-6.783,23.318-11.817,24.977
										c-2.338,0.771-0.834-17.613-0.696-19.207c0.212-2.449-0.541-13.912,2.456-17.359l4.005-5.099L626.043,100.638z"/>
								</g>
							</g>
						</g>
						<g>
							<path style="fill:none;stroke:#483D55;stroke-linecap:round;stroke-linejoin:round;stroke-miterlimit:10;" d="
								M632.711,100.522c0,0,2.635-4.612,10.721-3.73c8.085,0.882,11.677,8.735,11.677,8.735"/>
							<path style="fill:none;stroke:#483D55;stroke-linecap:round;stroke-linejoin:round;stroke-miterlimit:10;" d="
								M632.466,103.674c0,0,11.992-4.124,16.845,5.923"/>
							<path style="fill:none;stroke:#483D55;stroke-linecap:round;stroke-linejoin:round;stroke-miterlimit:10;" d="
								M631.708,99.836c0,0-6.25-10.456-19.804,1.267"/>
							<path style="fill:none;stroke:#483D55;stroke-linecap:round;stroke-linejoin:round;stroke-miterlimit:10;" d="
								M630.304,103.674c0,0-5.518-9.477-20.401,3.773"/>
							<path style="fill:none;stroke:#483D55;stroke-linecap:round;stroke-linejoin:round;stroke-miterlimit:10;" d="
								M657.023,119.753c0,0,4.694,1.525,4.974,9.165s-2.487,11.404-2.487,11.404"/>
							<path style="fill:none;stroke:#483D55;stroke-linecap:round;stroke-linejoin:round;stroke-miterlimit:10;" d="
								M649.282,162.321c0,0,7.86,0.616,9.46-2.515c1.599-3.132-1.129-8.779,0-11.838"/>
							<path style="fill:none;stroke:#483D55;stroke-linecap:round;stroke-linejoin:round;stroke-miterlimit:10;" d="
								M644.547,161.48c1.412-1.07,5.394-2.041,5.609-8.041"/>
							<path style="fill:none;stroke:#483D55;stroke-linecap:round;stroke-linejoin:round;stroke-miterlimit:10;" d="
								M603.209,139.598c0,0-0.601,6.245-3.133,12.261s4.235,7.947,4.235,7.947"/>
							<path style="fill:none;stroke:#483D55;stroke-linecap:round;stroke-linejoin:round;stroke-miterlimit:10;" d="
								M610.094,148.541c0,0-1.513,3.427-3.229,4.92s0.127,5.029,1.415,6.117"/>
							<path style="fill:none;stroke:#483D55;stroke-linecap:round;stroke-linejoin:round;stroke-miterlimit:10;" d="
								M600.517,122.213c0,0,2.198-6.518,5.556-9.892"/>
							<path style="fill:none;stroke:#483D55;stroke-linecap:round;stroke-linejoin:round;stroke-miterlimit:10;" d="
								M631.051,109.91c0,0-0.667,5,5.194,6.706c5.861,1.706,9.113,4.905,9.193,6.364"/>
							<path style="fill:none;stroke:#483D55;stroke-linecap:round;stroke-linejoin:round;stroke-miterlimit:10;" d="
								M612.661,120.924c0,0,2.415-4.897,7.223-5.735c4.809-0.838,8.022-1.544,9.835-4.147"/>
						</g>
					</g>
				</g>
				<g>
					<g>
						<g>
							<g>
								<g>
									<g>
										<path style="fill:#C44662;" d="M573.966,417.804c0,0-29.154,14.675-29.897,16c-0.743,1.325-1.049,4.202-0.513,4.707
											c0.536,0.506,37.65-0.588,39.067-1.152c1.417-0.563,1.519-19.204,1.519-19.204L573.966,417.804z"/>
										<path style="fill:#433A4D;" d="M543.556,438.512c0,0,0.103,2.004,0.41,2.191c0.307,0.187,37.526,0.586,38.311-0.234
											c0.785-0.82,0.347-3.109,0.347-3.109L543.556,438.512z"/>
									</g>
									<g>
										<path style="fill:#F6B95C;" d="M562.855,427.579l-2.185-3.378c-0.318-0.491-0.177-1.146,0.314-1.463l0,0
											c0.491-0.317,1.146-0.177,1.463,0.314l2.185,3.378c0.317,0.491,0.177,1.146-0.314,1.463l0,0
											C563.827,428.21,563.172,428.069,562.855,427.579z"/>
										<path style="fill:#F6B95C;" d="M558.519,429.897l-2.185-3.378c-0.317-0.491-0.177-1.146,0.314-1.463l0,0
											c0.491-0.317,1.146-0.177,1.463,0.314l2.185,3.378c0.318,0.491,0.177,1.146-0.314,1.463l0,0
											C559.491,430.528,558.836,430.388,558.519,429.897z"/>
										<path style="fill:#F6B95C;" d="M554.182,432.215l-2.185-3.378c-0.318-0.491-0.177-1.146,0.314-1.463l0,0
											c0.491-0.318,1.146-0.177,1.463,0.314l2.185,3.378c0.317,0.491,0.177,1.146-0.314,1.463l0,0
											C555.155,432.846,554.5,432.706,554.182,432.215z"/>
									</g>
									<circle style="fill:#F6B95C;" cx="575.441" cy="429.925" r="3.508"/>
								</g>
								<polygon style="fill:#AB3553;" points="570.421,419.596 584.208,419.853 583.877,428.384 567.534,421.068 								"/>
							</g>
							<g>
								<g>
									<g>
										<path style="fill:#C44662;" d="M661.398,412.91c0,0-23.781,22.356-24.117,23.838s0.188,4.327,0.846,4.659
											c0.658,0.332,35.93-11.265,37.129-12.208c1.199-0.943-4.002-18.844-4.002-18.844L661.398,412.91z"/>
										<path style="fill:#433A4D;" d="M638.128,441.407c0,0,0.669,1.892,1.016,1.985c0.347,0.092,36.145-10.103,36.665-11.113
											s-0.552-3.08-0.552-3.08L638.128,441.407z"/>
									</g>
									<g>
										<path style="fill:#F6B95C;" d="M653.523,425.44l-3.055-2.617c-0.444-0.38-0.495-1.048-0.115-1.492l0,0
											c0.38-0.444,1.048-0.495,1.492-0.115l3.055,2.617c0.444,0.38,0.495,1.048,0.115,1.492l0,0
											C654.635,425.768,653.966,425.82,653.523,425.44z"/>
										<path style="fill:#F6B95C;" d="M650.024,428.895l-3.055-2.617c-0.444-0.38-0.495-1.048-0.115-1.492l0,0
											c0.38-0.444,1.048-0.495,1.492-0.115l3.055,2.617c0.444,0.38,0.495,1.048,0.115,1.492l0,0
											C651.136,429.224,650.468,429.275,650.024,428.895z"/>
										<path style="fill:#F6B95C;" d="M646.526,432.35l-3.055-2.617c-0.444-0.38-0.495-1.048-0.115-1.492l0,0
											c0.38-0.444,1.048-0.495,1.492-0.115l3.055,2.617c0.444,0.38,0.495,1.048,0.115,1.492l0,0
											C647.638,432.679,646.97,432.73,646.526,432.35z"/>
									</g>
									<circle style="fill:#F6B95C;" cx="666.257" cy="424.112" r="3.508"/>
								</g>
								<polygon style="fill:#AB3553;" points="657.026,417.044 672.326,414.03 673.907,420.237 654.443,419.498 								"/>
							</g>
						</g>
						<g>
							<g>
								<g>
									<path style="fill:#F6B95C;" d="M586.542,236.9c0,0-11.21,17.575-15.57,32.333c-4.36,14.758-8.096,150.09-6.481,150.441
										s26.485,1.406,26.485,1.406s22.051-103.126,28.349-120.52c6.298-17.394,18.846-63.96,18.846-63.96L586.542,236.9z"/>
									<path style="fill:#DB9E4A;" d="M613.794,320.43l-12.618-37.818c0,0-0.011,20.379-2.541,48.303
										c-3.145,34.722-10.52,90.171-10.52,90.171l2.861-0.006L613.794,320.43z"/>
								</g>
								<g>
									<path style="fill:#F6B95C;" d="M598.636,274.978c0,0,48.492,145.839,49.461,146.102c0.969,0.264,27.131-8.17,27.615-10.015
										S642.774,245.561,638.172,236.6L598.636,274.978z"/>
									<path style="fill:#DB9E4A;" d="M638.172,236.6h-10.11l43.78,176.631l3.871-2.166
										C675.713,411.065,651.15,261.406,638.172,236.6z"/>
								</g>
							</g>
							<g>
								<g>
									
										<path style="fill:none;stroke:#332A3C;stroke-width:0.5;stroke-linecap:round;stroke-linejoin:round;stroke-miterlimit:10;" d="
										M598.636,252.056c0,0-2.542,22.196-1.401,25.756c1.141,3.56,6.166,4.8,6.166,4.8"/>
									
										<path style="fill:none;stroke:#332A3C;stroke-width:0.5;stroke-linecap:round;stroke-linejoin:round;stroke-miterlimit:10;" d="
										M586.542,244.674c0,0,22.597,2.67,43.312,0"/>
								</g>
								<g>
									
										<line style="fill:none;stroke:#332A3C;stroke-width:0.5;stroke-linecap:round;stroke-linejoin:round;stroke-miterlimit:10;stroke-dasharray:12;" x1="642.378" y1="270.697" x2="672.621" y2="408.063"/>
									
										<line style="fill:none;stroke:#332A3C;stroke-width:0.5;stroke-linecap:round;stroke-linejoin:round;stroke-miterlimit:10;" x1="629.304" y1="297.752" x2="661.184" y2="411.831"/>
								</g>
								<g>
									
										<path style="fill:none;stroke:#332A3C;stroke-width:0.5;stroke-linecap:round;stroke-linejoin:round;stroke-miterlimit:10;stroke-dasharray:12;" d="
										M582.042,254.47c0,0-9.214,16.189-9.632,28.141c-0.419,11.952-4.188,131.958-4.188,131.958"/>
									
										<line style="fill:none;stroke:#332A3C;stroke-width:0.5;stroke-linecap:round;stroke-linejoin:round;stroke-miterlimit:10;" x1="584.688" y1="297.752" x2="577.062" y2="416.11"/>
								</g>
							</g>
						</g>
					</g>
					<g>
						<g>
							<g>
								<g>
									<path style="fill:#DB756C;" d="M549.231,142.093c0,0-5.701-7.757-6.966-10.287s-15.688-4.14-16.263-4.83
										c-0.575-0.69-2.955-1.15-1.05-2.53s29.713-0.287,32.013-0.172s3.466,13.626,3.329,13.971
										C560.156,138.591,551.416,143.296,549.231,142.093z"/>
									<path style="fill:#C65B55;" d="M541.957,131.295c0,0,4.226,0.517,9.113,0c4.887-0.517,7.995-2.633,7.995-2.633
										s0.688,3.955,0.745,4.99c0.057,1.035-13.88,3.83-13.88,3.83S543.014,133.638,541.957,131.295z"/>
								</g>
								<g>
									<g>
										<rect x="522.812" y="81.17" style="fill:#F6B95C;" width="47.237" height="43.104"/>
										<rect x="519.725" y="72.96" style="fill:#E86D69;" width="52.992" height="14.163"/>
										<g>
											
												<rect x="540.492" y="76.552" transform="matrix(4.221518e-11 -1 1 4.221518e-11 444.1323 648.1403)" style="fill:#433A4D;" width="11.289" height="50.904"/>
											
												<rect x="540.043" y="94.807" transform="matrix(1.192297e-11 -1 1 1.192297e-11 443.6833 647.6913)" style="fill:#382F42;" width="11.289" height="14.394"/>
											<rect x="540.286" y="72.18" style="fill:#433A4D;" width="11.289" height="52.956"/>
										</g>
									</g>
									<g>
										
											<path style="fill:none;stroke:#42394B;stroke-width:3;stroke-linecap:round;stroke-linejoin:round;stroke-miterlimit:10;" d="
											M546.12,74.694c0,0-19.932-4.205-14.521-12.614S546.587,68.737,546.12,74.694z"/>
										
											<path style="fill:none;stroke:#42394B;stroke-width:3;stroke-linecap:round;stroke-linejoin:round;stroke-miterlimit:10;" d="
											M546.153,74.371c0,0,19.932-4.205,14.521-12.614C555.263,53.347,545.686,68.414,546.153,74.371z"/>
									</g>
								</g>
							</g>
							<g>
								<g>
									<g>
										<path style="fill:none;stroke:#332A3C;stroke-linecap:round;stroke-linejoin:round;stroke-miterlimit:10;" d="
											M682.977,317.882c0,0-11.884-29.42,2.876-28.982c14.07,0.417,18.269,27.789,18.269,27.789"/>
										<circle style="fill:#342B3D;" cx="683.07" cy="317.531" r="1.555"/>
										<circle style="fill:#342B3D;" cx="704.089" cy="316.85" r="1.555"/>
									</g>
									<g>
										<g>
											<polygon style="fill:#AB3553;" points="678.509,315.433 672.825,373.732 727.444,370.806 713.182,312.563 											"/>
											<polygon style="fill:#C44662;" points="669.149,316.002 663.465,374.3 718.084,371.375 703.821,313.132 											"/>
										</g>
										<g>
											<polygon style="fill:none;stroke:#332A3C;stroke-linecap:round;stroke-linejoin:round;stroke-miterlimit:10;" points="
												674.322,324.387 672.7,340.069 703.011,338.431 699.511,323.105 											"/>
											
												<line style="fill:none;stroke:#332A3C;stroke-linecap:round;stroke-linejoin:round;stroke-miterlimit:10;" x1="672.191" y1="343.716" x2="704.122" y2="342.141"/>
										</g>
									</g>
									<g>
										<path style="fill:none;stroke:#332A3C;stroke-linecap:round;stroke-linejoin:round;stroke-miterlimit:10;" d="
											M677.51,319.328c0,0-6.417-30.867,8.343-30.429c14.07,0.417,12.801,29.236,12.801,29.236"/>
										<circle style="fill:#342B3D;" cx="677.603" cy="318.977" r="1.555"/>
										<circle style="fill:#342B3D;" cx="698.621" cy="318.296" r="1.555"/>
									</g>
								</g>
								<g>
									<path style="fill:#DB756C;" d="M693.884,294.574c-0.073-0.093-0.154-0.207-0.236-0.322
										c-0.213-0.82-1.317-4.506-2.701-7.823c-0.779-1.868-2.021-8.43-6.169-10.31c-0.99-0.449-2.101-0.391-3.089-0.158
										c-0.269-0.657-0.697-1.18-1.348-1.494c0,0-3.454,1.2-5.275,3.878c-3.123,4.594,0.692,7.038-0.227,11.197
										c-1.069,4.834-2.405,7.695-0.021,7.289c1.2-0.204,2.144-1.411,2.924-3.014l-0.121,1.718
										c-0.013,0.119-0.021,0.229-0.023,0.329l-0.003,0.046l0.004,0c0,0.059-0.002,0.123,0.002,0.174
										c0.126,1.359,1.92,4.414,2.616,5.121s3.049-0.498,3.204-1.577c0,0,1.569,0.681,2.836,0.268s1.422-1.399,1.422-1.399
										s0.961,0.537,2.068-0.273c1.106-0.811,1.106-0.811,1.106-0.811s1.037-0.001,2.105-0.588
										c0.348-0.191,0.637-0.423,0.869-0.649C694.25,295.765,694.274,295.073,693.884,294.574z"/>
									<path style="fill:#C65B55;" d="M674.197,284.369l14.733-3.506c0,0-1.902-3.839-2.29-4.184l-12.911,4.37
										C673.729,281.049,673.763,283.128,674.197,284.369z"/>
								</g>
							</g>
						</g>
						<g>
							<g>
								<g>
									<path style="fill:#EC8C8E;" d="M617.181,163.277c0,0,0.7-7.257,3.577-7.602c2.876-0.345,18.656-1.661,19.706,0.588
										c2.142,4.588-2.311,8.193-2.311,8.193L617.181,163.277z"/>
									<path style="fill:#EC8C8E;" d="M616.004,163.137c-2.029,0-4.034,0.546-5.736,1.651c-3.123,2.028-5.917,4.74-8.468,7.496
										c-3.388,3.662-10.239,10.477-9.212,21.074c1.145,11.822,2.565,19.917,1.473,26.154c-1.091,6.237-6.888,14.535-6.888,14.535
										s0.851,2.136,17.602,3.194c21.131,1.334,37.089-3.674,37.089-3.674s0.901-4.769,8.079-15.846
										c11.217-17.307-6.57-54.584-6.57-54.584H616.004z"/>
								</g>
								<g>
									<path style="fill:#D37A7F;" d="M594.292,202.081c0,0,4.293,2.288,13.402,3.643c9.109,1.355,13.063,0.569,13.063,0.569
										s-17.661,5.026-28.234,1.57L594.292,202.081z"/>
									<path style="fill:#D37A7F;" d="M615.206,163.271c0,0,11.331,1.804,19.439,0.769
										C634.645,164.04,621.469,171.04,615.206,163.271z"/>
								</g>
							</g>
							<g>
								<g>
									<g>
										<g>
											<g>
												<path style="fill:#433A4D;" d="M643.373,163.137c0,0,14.694,4.824,22.929,10.61c8.235,5.786,25.086,93.67,22.665,98.811
													c-2.42,5.141-14.921,8.101-20.859,7.391c-5.938-0.711-23.035-78.452-25.687-84.551S643.373,163.137,643.373,163.137z"/>
												<path style="fill:#544B5F;" d="M665.325,276.181c0,0,1.448,7.344,2.233,7.501c0.785,0.157,12.25,0,22.929-6.753
													l-1.454-9.759C689.034,267.17,681.78,274.176,665.325,276.181"/>
											</g>
											<g>
												<path style="fill:#433A4D;" d="M592.587,193.358c-1.027-10.597,5.824-17.412,9.213-21.074
													c2.547-2.753,5.338-5.461,8.457-7.488c-0.068-0.217-0.137-0.437-0.205-0.645c0,0-8.874,4.831-21.935,2.431
													c-17.145-3.15-18.33-25.898-21.97-30.456c-3.64-4.558-22.216,3.704-23.209,10.079s8.407,31.662,18.665,43.248
													c6.313,7.13,20.108,9.11,31.561,9.444C592.972,197.142,592.776,195.306,592.587,193.358z"/>
												<path style="fill:#544B5F;" d="M567.301,138.325c0,0-1.179-7.392-1.958-7.578c-0.735-0.175-12.427,0.111-22.916,5.482
													c-1.109,0.568-1.702,1.811-1.439,3.028l1.843,8.517C542.832,147.775,550.783,139.726,567.301,138.325"/>
											</g>
										</g>
										<g>
											<g>
												<path style="fill:#433A4D;" d="M617.181,163.277c0,0-10.558,13.297-13.385,22.406s-3.096,59.087-5.16,61.896
													s-21.853-2.247-21.853-2.247s9.048-33.567,9.759-45.293c0.711-11.726,12.897-28.548,17.085-32.167
													S612.818,163.183,617.181,163.277z"/>
												<path style="fill:#544B5F;" d="M617.834,159.806l-14.805,3.777l0.872,18.854l-5.265-4.816l3.12,25.982
													c0,0,3.342-20.989,12.519-35.552C615.844,165.563,617.834,163.825,617.834,159.806z"/>
											</g>
											<g>
												<path style="fill:#433A4D;" d="M643.373,163.137c0,0-9.632,14.156-12.648,26.315
													c-3.016,12.158-5.256,62.454-5.256,62.454l23.263,8.318l1.978-38.623l15.592-47.853
													C666.302,173.747,651.54,164.463,643.373,163.137z"/>
												<path style="fill:#544B5F;" d="M640.486,161.48c0,0-7.107,8.425-9.207,18.549c-1.796,8.657-2.773,25.599-2.773,25.599
													l13.05-23.113h-4.38l14.02-16.821L640.486,161.48z"/>
											</g>
										</g>
									</g>
									<g>
										<g>
											
												<line style="fill:none;stroke:#191124;stroke-width:0.5;stroke-linecap:round;stroke-linejoin:round;stroke-miterlimit:10;" x1="651.887" y1="213.419" x2="665.596" y2="182.881"/>
											
												<line style="fill:none;stroke:#191124;stroke-width:0.5;stroke-linecap:round;stroke-linejoin:round;stroke-miterlimit:10;" x1="678.785" y1="275.442" x2="669.362" y2="234.047"/>
										</g>
										<g>
											
												<path style="fill:none;stroke:#191124;stroke-width:0.5;stroke-linecap:round;stroke-linejoin:round;stroke-miterlimit:10;" d="
												M554.114,141.603c0,0,5.627,21.786,9.606,28.002"/>
											
												<path style="fill:none;stroke:#191124;stroke-width:0.5;stroke-linecap:round;stroke-linejoin:round;stroke-miterlimit:10;" d="
												M587.173,198.15c0,0,3.013-13.279,8.672-23.374"/>
										</g>
										<g>
											
												<line style="fill:none;stroke:#191124;stroke-width:0.5;stroke-linecap:round;stroke-linejoin:round;stroke-miterlimit:10;" x1="580.995" y1="238.34" x2="597.235" y2="239.83"/>
											
												<line style="fill:none;stroke:#191124;stroke-width:0.5;stroke-linecap:round;stroke-linejoin:round;stroke-miterlimit:10;" x1="580.21" y1="239.83" x2="580.995" y2="236.178"/>
											
												<line style="fill:none;stroke:#191124;stroke-width:0.5;stroke-linecap:round;stroke-linejoin:round;stroke-miterlimit:10;" x1="582.585" y1="240.252" x2="583.37" y2="236.6"/>
										</g>
										<g>
											
												<line style="fill:none;stroke:#191124;stroke-width:0.5;stroke-linecap:round;stroke-linejoin:round;stroke-miterlimit:10;" x1="628.062" y1="242.79" x2="647.349" y2="245.268"/>
											
												<line style="fill:none;stroke:#191124;stroke-width:0.5;stroke-linecap:round;stroke-linejoin:round;stroke-miterlimit:10;" x1="638.172" y1="246.21" x2="638.957" y2="242.559"/>
											
												<line style="fill:none;stroke:#191124;stroke-width:0.5;stroke-linecap:round;stroke-linejoin:round;stroke-miterlimit:10;" x1="640.208" y1="246.776" x2="640.994" y2="243.125"/>
										</g>
									</g>
								</g>
								<g>
									<path style="opacity:0.3;fill:#433A4D;" d="M631.751,178.075c0,0-3.805,16.078-4.84,24.007
										c-0.416,3.19-3.643,34.929-3.967,43.463c0,0,1.525,2.884,2.525,6.361L631.751,178.075z"/>
									<path style="opacity:0.3;fill:#433A4D;" d="M616.285,165.103c0,0-8.587,13.417-10.36,25.818
										c-2.714,18.978-4.28,55.337-2.99,54.94l-5.699,2.398c0,0,1.207-43.573,2.936-49.363
										C601.899,193.106,610.143,170.565,616.285,165.103z"/>
								</g>
							</g>
						</g>
					</g>
				</g>
			</g>
		</g>
	</g>
</g>
</svg>
